<?xml version="1.0" encoding="UTF-8"?>
<svg width="175px" height="175px" viewBox="0 0 175 175" version="1.1" xmlns="http://www.w3.org/2000/svg" xmlns:xlink="http://www.w3.org/1999/xlink">
    <!-- Generator: Sketch 53.2 (72643) - https://sketchapp.com -->
    <title>cross</title>
    <desc>Created with Sketch.</desc>
    <g id="Page-1" stroke="none" stroke-width="1" fill="none" fill-rule="evenodd">
        <g id="cross" fill="#414C63" fill-rule="nonzero">
            <path d="M146.537,1.047 C145.141,-0.349 142.856,-0.349 141.46,1.047 L89.658,52.849 C88.262,54.245 85.977,54.245 84.581,52.849 L32.78,1.047 C31.384,-0.349 29.099,-0.349 27.703,1.047 L1.047,27.702 C-0.349,29.098 -0.349,31.383 1.047,32.779 L52.849,84.581 C54.245,85.977 54.245,88.262 52.849,89.658 L1.047,141.46 C-0.349,142.856 -0.349,145.141 1.047,146.537 L27.702,173.192 C29.098,174.588 31.383,174.588 32.779,173.192 L84.581,121.39 C85.977,119.994 88.262,119.994 89.658,121.39 L141.459,173.191 C142.855,174.587 145.14,174.587 146.536,173.191 L173.191,146.536 C174.587,145.14 174.587,142.855 173.191,141.459 L121.39,89.658 C119.994,88.262 119.994,85.977 121.39,84.581 L173.191,32.78 C174.587,31.384 174.587,29.099 173.191,27.703 L146.537,1.047 Z" id="Path"></path>
        </g>
    </g>
</svg>