<?xml version="1.0" encoding="UTF-8"?>
<svg viewBox="0 0 476 403" version="1.1" xmlns="http://www.w3.org/2000/svg" xmlns:xlink="http://www.w3.org/1999/xlink">
    <!-- Generator: Sketch 53.2 (72643) - https://sketchapp.com -->
    <title>github</title>
    <desc>Created with Sketch.</desc>
    <g id="Page-1" stroke="none" stroke-width="1" fill="none" fill-rule="evenodd">
        <g id="github" fill="#414C63" fill-rule="nonzero">
            <path d="M436.244,110.752 C441.384,95.33 443.957,79.343 443.957,62.785 C443.957,40.705 439.098,19.957 429.393,0.543 C409.031,0.543 391.044,4.258 375.432,11.679 C359.828,19.102 342.032,30.617 322.053,46.224 C296.931,40.134 270.276,37.089 242.112,37.089 C211.275,37.089 181.867,40.422 153.889,47.083 C133.525,31.093 115.538,19.343 99.93,11.823 C84.322,4.303 66.241,0.544 45.683,0.544 C35.976,19.958 31.123,40.707 31.123,62.786 C31.123,79.537 33.691,95.716 38.831,111.321 C12.942,141.587 0,179.272 0,224.383 C0,263.978 5.898,295.475 17.701,318.89 C23.984,331.257 32.166,342.202 42.255,351.722 C52.34,361.236 63.856,368.95 76.8,374.852 C89.746,380.748 102.781,385.653 115.916,389.551 C129.05,393.451 143.562,396.309 159.456,398.11 C175.349,399.926 189.386,401.114 201.567,401.689 C213.748,402.253 227.26,402.542 242.111,402.542 C259.619,402.542 275.507,402.11 289.789,401.259 C304.066,400.404 320.383,398.306 338.753,394.983 C357.12,391.65 373.3,387.126 387.293,381.418 C401.283,375.71 414.705,367.523 427.552,356.867 C440.399,346.204 450.436,333.549 457.673,318.891 C469.277,295.288 475.085,263.784 475.085,224.384 C475.078,179.082 462.135,141.206 436.244,110.752 Z M401.995,318.455 C395.903,330.926 388.193,340.72 378.868,347.865 C369.539,355.004 357.93,360.712 344.037,365 C330.137,369.281 316.82,372.087 304.066,373.415 C291.308,374.749 277.133,375.413 261.521,375.413 L213.555,375.413 C197.948,375.413 183.765,374.749 171.014,373.415 C158.262,372.087 144.939,369.281 131.043,365 C117.152,360.712 105.543,355.004 96.214,347.865 C86.885,340.719 79.177,330.926 73.086,318.455 C66.996,305.984 63.95,291.379 63.95,274.631 C63.95,251.784 70.517,232.367 83.652,216.386 C96.786,200.396 114.581,192.404 137.039,192.404 C145.227,192.404 163.785,194.401 192.716,198.399 C206.229,200.492 221.172,201.539 237.539,201.539 C253.911,201.539 268.852,200.495 282.363,198.399 C311.68,194.4 330.232,192.404 338.041,192.404 C360.498,192.404 378.293,200.4 391.427,216.386 C404.562,232.374 411.125,251.784 411.125,274.631 C411.125,291.382 408.079,305.995 401.995,318.455 Z" id="Shape"></path>
            <path d="M166.875,229.52 C161.069,223.045 154.172,219.808 146.176,219.808 C138.178,219.808 131.28,223.049 125.475,229.52 C119.673,235.988 115.578,243.223 113.2,251.209 C110.817,259.211 109.629,267.013 109.629,274.631 C109.629,282.241 110.82,290.044 113.2,298.045 C115.575,306.036 119.668,313.267 125.475,319.734 C131.283,326.209 138.178,329.447 146.176,329.447 C154.172,329.447 161.072,326.203 166.875,319.734 C172.679,313.266 176.772,306.036 179.15,298.045 C181.53,290.044 182.721,282.241 182.721,274.631 C182.721,267.02 181.533,259.211 179.15,251.209 C176.771,243.226 172.682,235.994 166.875,229.52 Z" id="Path"></path>
            <path d="M349.601,229.52 C343.797,223.045 336.898,219.808 328.904,219.808 C320.913,219.808 314.01,223.049 308.203,229.52 C302.399,235.988 298.307,243.223 295.932,251.209 C293.547,259.211 292.356,267.013 292.356,274.631 C292.356,282.241 293.547,290.044 295.932,298.045 C298.307,306.036 302.4,313.267 308.203,319.734 C314.011,326.209 320.913,329.447 328.904,329.447 C336.898,329.447 343.798,326.203 349.601,319.734 C355.402,313.266 359.497,306.036 361.879,298.045 C364.258,290.044 365.448,282.241 365.448,274.631 C365.448,267.02 364.258,259.211 361.879,251.209 C359.498,243.226 355.402,235.994 349.601,229.52 Z" id="Path"></path>
        </g>
    </g>
</svg>