<?xml version="1.0" encoding="UTF-8"?>
<svg width="98px" height="98px" viewBox="0 0 98 98" version="1.1" xmlns="http://www.w3.org/2000/svg" xmlns:xlink="http://www.w3.org/1999/xlink">
    <!-- Generator: Sketch 53.2 (72643) - https://sketchapp.com -->
    <title>instagram</title>
    <desc>Created with Sketch.</desc>
    <g id="Page-1" stroke="none" stroke-width="1" fill="none" fill-rule="evenodd">
        <g id="instagram" fill="#414C63" fill-rule="nonzero">
            <path d="M12.501,0 L84.894,0 C91.769,0 97.394,5.09 97.394,12.5 L97.394,84.895 C97.394,92.305 91.769,97.395 84.894,97.395 L12.501,97.395 C5.624,97.395 0,92.305 0,84.895 L0,12.5 C0,5.09 5.624,0 12.501,0 L12.501,0 Z M70.948,10.821 C68.536,10.821 66.565,12.793 66.565,15.206 L66.565,25.701 C66.565,28.113 68.536,30.086 70.948,30.086 L81.956,30.086 C84.368,30.086 86.341,28.113 86.341,25.701 L86.341,15.206 C86.341,12.793 84.368,10.821 81.956,10.821 L70.948,10.821 L70.948,10.821 Z M86.387,41.188 L77.815,41.188 C78.626,43.836 79.065,46.641 79.065,49.543 C79.065,65.743 65.509,78.875 48.79,78.875 C32.072,78.875 18.518,65.743 18.518,49.543 C18.518,46.639 18.956,43.835 19.768,41.188 L10.823,41.188 L10.823,82.329 C10.823,84.458 12.565,86.201 14.695,86.201 L82.517,86.201 C84.647,86.201 86.389,84.459 86.389,82.329 L86.389,41.188 L86.387,41.188 Z M48.789,29.533 C37.987,29.533 29.229,38.018 29.229,48.486 C29.229,58.954 37.987,67.439 48.789,67.439 C59.592,67.439 68.351,58.954 68.351,48.486 C68.351,38.018 59.593,29.533 48.789,29.533 Z" id="Shape"></path>
        </g>
    </g>
</svg>