<?xml version="1.0" encoding="UTF-8"?>
<svg width="332px" height="512px" viewBox="0 0 332 512" version="1.1" xmlns="http://www.w3.org/2000/svg" xmlns:xlink="http://www.w3.org/1999/xlink">
    <!-- Generator: Sketch 53.2 (72643) - https://sketchapp.com -->
    <title>scroll</title>
    <desc>Created with Sketch.</desc>
    <g id="Page-1" stroke="none" stroke-width="1" fill="none" fill-rule="evenodd">
        <g id="scroll" fill="#414C63" fill-rule="nonzero">
            <path d="M166.238281,430.144531 L76.46875,335.246094 L105.527344,307.757812 L166.160156,371.855469 L226.433594,307.796875 L255.566406,335.207031 L166.238281,430.144531 Z M332,392 L332,120 C332,53.832031 278.167969,0 212,0 L120,0 C53.832031,0 0,53.832031 0,120 L0,392 C0,458.167969 53.832031,512 120,512 L212,512 C278.167969,512 332,458.167969 332,392 Z M212,40 C256.113281,40 292,75.886719 292,120 L292,392 C292,436.113281 256.113281,472 212,472 L120,472 C75.886719,472 40,436.113281 40,392 L40,120 C40,75.886719 75.886719,40 120,40 L212,40 Z M166,81 C154.953125,81 146,89.953125 146,101 C146,112.046875 154.953125,121 166,121 C177.046875,121 186,112.046875 186,101 C186,89.953125 177.046875,81 166,81 Z M166,161 C154.953125,161 146,169.953125 146,181 C146,192.046875 154.953125,201 166,201 C177.046875,201 186,192.046875 186,181 C186,169.953125 177.046875,161 166,161 Z M166,241 C154.953125,241 146,249.953125 146,261 C146,272.046875 154.953125,281 166,281 C177.046875,281 186,272.046875 186,261 C186,249.953125 177.046875,241 166,241 Z" id="Shape"></path>
        </g>
    </g>
</svg>